<?xml version="1.0" standalone="no"?>
<!DOCTYPE svg PUBLIC "-//W3C//DTD SVG 20010904//EN"
 "http://www.w3.org/TR/2001/REC-SVG-20010904/DTD/svg10.dtd">
<svg version="1.0" xmlns="http://www.w3.org/2000/svg"
 width="512.000000pt" height="512.000000pt" viewBox="0 0 512.000000 512.000000"
 preserveAspectRatio="xMidYMid meet">
<metadata>
Created by potrace 1.11, written by Peter Selinger 2001-2013
</metadata>
<g transform="translate(0.000000,512.000000) scale(0.100000,-0.100000)"
fill="#000000" stroke="none">
<path d="M1300 4178 l-190 -383 495 -5 494 -5 -279 -94 -280 -94 0 -1513 c0
-963 4 -1514 10 -1514 7 0 634 215 818 280 l32 12 0 619 0 619 553 0 552 1
197 382 196 382 -749 3 -749 2 0 460 0 460 948 0 947 0 188 375 c103 206 187
380 187 385 0 7 -541 10 -1591 10 l-1590 0 -189 -382z"/>
<path d="M450 2843 c0 -4 89 -177 197 -385 l197 -378 276 2 275 3 3 283 2 284
-52 99 -53 99 -422 0 c-233 0 -423 -3 -423 -7z"/>
</g>
</svg>
